<?xml version="1.0" standalone="no"?>
<!DOCTYPE svg PUBLIC "-//W3C//DTD SVG 20010904//EN"
 "http://www.w3.org/TR/2001/REC-SVG-20010904/DTD/svg10.dtd">
<svg version="1.0" xmlns="http://www.w3.org/2000/svg"
 width="128.000000pt" height="128.000000pt" viewBox="0 0 128.000000 128.000000"
 preserveAspectRatio="xMidYMid meet">
<metadata>
Created by potrace 1.16, written by Peter Selinger 2001-2019
</metadata>
<g transform="translate(0.000000,128.000000) scale(0.021333,-0.021333)"
fill="#000000" stroke="none">
<path d="M0 3000 l0 -3000 3000 0 3000 0 0 3000 0 3000 -3000 0 -3000 0 0
-3000z m4577 1652 c121 -90 236 -238 276 -356 23 -67 22 -173 -3 -255 -30 -98
-35 -102 -55 -37 -28 90 -67 143 -112 155 -60 16 -104 -1 -158 -61 -26 -29
-53 -66 -62 -82 -21 -43 -21 -43 -40 -17 -8 13 -31 29 -49 37 -39 16 -133 18
-186 4 -34 -10 -44 -7 -104 25 -37 19 -76 35 -86 35 -30 0 -77 -28 -130 -78
-26 -25 -50 -43 -52 -41 -2 2 -15 23 -30 47 l-27 43 25 44 c39 65 72 101 108
115 18 8 35 15 37 16 2 2 -13 23 -33 48 -20 24 -36 49 -36 54 0 6 17 24 38 40
98 78 223 113 332 94 35 -7 65 -10 67 -8 2 2 0 29 -5 60 -5 30 -7 57 -5 59 3
4 101 -7 156 -17 l27 -5 0 69 c0 54 3 70 14 70 8 0 50 -26 93 -58z m-1323
-341 c68 -105 83 -114 181 -122 128 -10 148 -25 260 -192 72 -105 72 -106 29
-252 l-37 -127 18 -133 c14 -96 16 -145 9 -172 l-9 -38 -75 -11 c-142 -20
-146 -23 -201 -138 -61 -129 -115 -272 -178 -479 -40 -133 -59 -178 -99 -240
-28 -42 -60 -105 -73 -140 l-23 -64 -60 28 c-89 42 -194 63 -287 56 -44 -3
-79 -2 -79 1 1 21 29 41 49 35 28 -7 71 37 71 73 0 29 -58 80 -110 95 -38 12
-42 11 -69 -15 -16 -16 -51 -72 -77 -127 -55 -111 -38 -101 -214 -129 -279
-44 -421 -86 -505 -149 -101 -77 -187 -216 -225 -365 l-18 -71 -43 -7 c-24 -4
-109 -9 -189 -10 l-145 -3 -199 98 c-109 53 -205 105 -212 115 -8 11 -9 23 -3
34 17 32 10 103 -16 154 -29 58 -34 51 90 129 137 86 342 182 640 300 149 58
340 133 425 167 192 75 447 197 560 267 355 221 581 523 654 876 41 197 39
357 -5 488 -35 103 -117 251 -158 285 -15 13 -14 15 3 25 11 7 46 32 79 57
l60 46 69 -140 c38 -76 88 -169 112 -205z m1887 290 c30 -32 66 -86 96 -148
48 -97 48 -99 48 -198 0 -64 -7 -127 -19 -175 -25 -97 -73 -151 -183 -205
-102 -50 -190 -84 -197 -77 -20 19 1 43 72 84 162 95 252 180 252 239 0 59
-32 121 -99 188 -36 37 -76 74 -89 82 -21 13 -22 17 -12 68 5 29 10 82 10 117
0 65 4 72 49 73 17 1 40 -15 72 -48z m574 -306 c121 -72 185 -181 185 -317 0
-79 -15 -116 -62 -151 -90 -68 -160 -82 -227 -47 -86 44 -100 100 -56 239 34
108 59 137 118 134 48 -2 95 -21 118 -49 8 -10 14 -41 14 -81 0 -57 -3 -67
-25 -85 -20 -16 -35 -19 -73 -15 -26 2 -49 6 -52 9 -2 2 0 21 6 41 9 35 31 48
44 27 11 -18 54 -11 66 12 10 18 8 24 -10 40 -29 22 -87 33 -120 22 -33 -12
-71 -69 -71 -108 0 -38 36 -102 71 -128 36 -27 99 -34 135 -15 34 17 79 93 89
150 10 50 -27 125 -95 194 -59 61 -100 77 -183 71 -80 -5 -139 -34 -220 -108
l-65 -60 14 48 c23 78 115 151 244 193 63 21 98 17 155 -16z m-1030 -213 c17
-10 42 -41 57 -68 98 -181 18 -437 -130 -421 -91 10 -140 104 -129 247 9 108
31 173 76 220 43 46 77 51 126 22z m-382 -116 c61 -26 117 -113 117 -180 0
-75 -61 -164 -135 -197 -48 -22 -126 -24 -163 -5 -72 38 -114 125 -96 201 10
42 10 42 106 66 61 15 90 42 88 83 -1 17 -2 34 -1 39 2 12 49 8 84 -7z m900
-164 c46 -26 77 -77 77 -126 0 -121 -122 -184 -211 -108 -85 71 -94 219 -15
253 30 13 113 3 149 -19z m-296 -113 c127 -48 187 -278 115 -441 -26 -58 -89
-114 -140 -123 -50 -8 -102 12 -130 53 -94 132 -42 454 82 508 38 16 38 16 73
3z m-443 -53 c9 -49 54 -93 110 -108 l46 -12 -1 -76 c-1 -92 -18 -146 -45
-142 -70 13 -88 13 -115 2 -16 -7 -45 -31 -64 -53 l-34 -40 -11 27 c-55 144
-29 332 56 411 36 34 51 31 58 -9z m-260 -146 c68 -60 106 -191 87 -297 -6
-31 -13 -58 -15 -61 -3 -2 -29 20 -58 50 -56 57 -122 95 -182 105 -34 5 -36 8
-36 43 0 52 27 125 60 160 39 42 96 42 144 0z m1092 -26 c130 -62 165 -353 57
-466 -41 -43 -92 -39 -147 12 -64 59 -89 124 -90 235 -1 106 19 171 65 210 35
29 67 32 115 9z m-686 -260 c60 -54 83 -125 78 -244 -3 -76 -8 -105 -28 -145
-24 -47 -28 -50 -75 -58 -67 -10 -82 -11 -139 -1 l-49 9 -25 95 c-22 86 -23
102 -13 163 31 188 149 273 251 181z m-538 -90 c73 -51 154 -180 183 -291 23
-89 22 -95 -35 -121 -110 -51 -201 -181 -208 -299 -3 -35 0 -63 4 -63 5 0 47
7 94 14 47 8 86 13 88 12 1 -2 -5 -20 -15 -42 -25 -59 -30 -258 -8 -365 20
-101 69 -208 124 -270 41 -47 126 -98 199 -120 23 -7 42 -16 42 -20 0 -16
-108 -101 -170 -133 -139 -73 -368 -126 -546 -126 -108 0 -163 10 -291 51
l-91 30 5 97 c3 53 1 127 -5 164 -22 137 -131 346 -236 448 -25 25 -46 48 -46
52 0 4 34 76 75 160 59 121 83 185 116 308 22 85 48 160 55 166 8 7 32 57 54
113 49 126 61 150 98 189 28 30 34 32 102 32 39 0 80 4 90 10 12 6 28 6 47 0
21 -7 48 -5 103 9 104 26 128 25 172 -5z m1038 -50 c96 -90 139 -227 88 -281
-91 -97 -302 144 -237 270 38 73 80 76 149 11z m-275 -20 c32 -35 65 -107 65
-144 0 -40 -32 -102 -66 -129 -29 -23 -79 -27 -117 -10 l-24 11 24 60 c16 38
27 89 30 137 2 42 6 82 9 89 6 21 54 13 79 -14z m165 -249 c36 -19 75 -69 93
-121 17 -48 31 -134 21 -134 -3 0 -35 31 -70 69 -43 46 -85 80 -129 102 -36
19 -65 37 -65 41 0 3 14 18 31 32 35 30 76 33 119 11z m-560 -74 c0 -6 -35
-54 -77 -108 -42 -54 -87 -123 -99 -153 l-23 -55 -85 -11 c-47 -6 -92 -14
-101 -17 -26 -11 -18 55 16 119 57 111 151 184 279 218 66 17 90 19 90 7z
m305 -1 c-3 -5 -17 -10 -31 -10 -26 0 -31 -9 -13 -27 7 -7 8 -17 1 -29 -11
-21 -27 -114 -19 -114 2 0 15 27 27 60 12 33 29 65 37 72 9 7 40 12 71 12 49
-1 53 0 37 12 -10 8 -34 14 -52 14 -18 0 -33 5 -33 11 0 15 74 2 128 -23 88
-42 213 -182 269 -304 24 -52 28 -74 31 -186 5 -154 -12 -244 -68 -356 -50
-99 -120 -169 -220 -221 -101 -53 -195 -75 -280 -66 -76 7 -195 45 -248 79
-122 77 -202 270 -202 488 0 99 21 203 45 228 13 12 15 8 15 -37 0 -38 9 -67
35 -119 19 -38 42 -78 51 -89 15 -20 16 -19 55 25 58 65 155 212 169 255 12
37 9 198 -6 271 -6 30 -4 31 38 42 66 17 80 20 126 21 27 1 41 -3 37 -9z m434
-14 c38 -20 99 -90 122 -140 21 -46 24 -121 8 -179 -11 -40 -49 -73 -74 -63
-23 9 -62 106 -70 177 -4 35 -18 94 -31 130 -13 37 -24 72 -24 78 0 15 36 14
69 -3z m-665 -83 c21 -94 21 -195 0 -236 -28 -54 -111 -171 -147 -205 l-34
-33 -16 24 c-44 68 -60 207 -29 263 31 56 197 273 203 266 4 -4 14 -39 23 -79z
m996 -261 c61 -38 103 -107 108 -180 3 -47 0 -62 -17 -83 -23 -30 -110 -75
-121 -62 -4 4 -15 31 -25 58 -33 89 -93 165 -131 165 -20 0 -18 70 2 98 34 50
107 51 184 4z m-2610 -144 c210 -64 390 -257 474 -510 21 -62 26 -96 26 -176
0 -258 -95 -523 -298 -832 -86 -132 -90 -136 -148 -162 -32 -14 -106 -41 -164
-58 -57 -18 -129 -43 -159 -56 -64 -29 -167 -32 -304 -10 -147 24 -180 40
-270 125 -172 164 -331 384 -395 544 -71 177 -85 243 -86 402 -1 163 12 225
74 352 53 107 131 193 213 233 74 36 212 72 362 94 61 9 128 21 150 26 22 5
41 7 43 6 1 -2 -9 -43 -23 -91 -14 -48 -25 -96 -25 -106 0 -28 -42 -25 -156
12 -78 25 -98 28 -105 17 -5 -7 -7 -17 -6 -23 6 -18 171 -66 249 -72 73 -5 85
-3 247 48 134 42 171 57 171 71 0 9 -4 19 -9 23 -5 3 -62 -11 -125 -32 -64
-20 -119 -34 -123 -30 -8 9 64 192 82 207 19 16 130 29 190 23 28 -3 79 -14
115 -25z m2421 8 c77 -53 138 -182 146 -312 6 -90 -9 -136 -51 -155 -45 -21
-124 38 -193 142 l-25 39 16 80 c9 44 16 114 16 155 l0 75 28 0 c15 0 44 -11
63 -24z"/>
<path d="M4896 1684 c-171 -72 -278 -71 -435 1 -41 18 -79 31 -85 28 -11 -7
54 -67 97 -89 15 -8 66 -20 112 -26 114 -15 206 -1 300 47 60 30 141 85 125
84 -3 0 -54 -21 -114 -45z"/>
</g>
</svg>
